<svg width="557" height="592" viewBox="0 0 557 592" fill="none" xmlns="http://www.w3.org/2000/svg">
<g clip-path="url(#clip0)">
<circle opacity="0.55" cx="278.481" cy="223.982" r="203.498" fill="url(#paint0_radial)" stroke="#33C69F" stroke-width="0.50068"/>
<circle opacity="0.33" cx="278" cy="223.5" r="283.938" fill="url(#paint1_radial)" stroke="#33C69F" stroke-width="0.50068"/>
<circle opacity="0.1" cx="278" cy="223.5" r="367.75" fill="url(#paint2_radial)" stroke="#33C69F" stroke-width="0.50068"/>
<path opacity="0.22" d="M278 90.5576L371.946 129.554M278 90.5576L184.054 129.554M278 90.5576L410.942 223.5M278 90.5576L371.946 317.446M278 90.5576V356.442M278 90.5576L184.054 317.446M278 90.5576L145.058 223.5M371.946 129.554L410.942 223.5M371.946 129.554H184.054M371.946 129.554L145.058 223.5M371.946 129.554L184.054 317.446M371.946 129.554L278 356.442M371.946 129.554V317.446M410.942 223.5L371.946 317.446M410.942 223.5L184.054 129.554M410.942 223.5H145.058M410.942 223.5L184.054 317.446M410.942 223.5L278 356.442M371.946 317.446L278 356.442M371.946 317.446L184.054 129.554M371.946 317.446L145.058 223.5M371.946 317.446H184.054M278 356.442L184.054 317.446M278 356.442L184.054 129.554M278 356.442L145.058 223.5M184.054 317.446L145.058 223.5M184.054 317.446V129.554M145.058 223.5L184.054 129.554" stroke="#5CD8B7" stroke-width="0.50068" stroke-dasharray="1 1"/>
<g filter="url(#filter0_d)">
<rect x="254.88" y="199.968" width="46.2408" height="46.2408" rx="3.8534" fill="#FDB515"/>
<path fill-rule="evenodd" clip-rule="evenodd" d="M293.55 225.473V219.234L284.302 209.876H278.137L278.137 209.876H271.915L262.726 219.234V225.473L278.138 209.877L293.55 225.473ZM284.302 236.392H279.679V222.096V215.857L284.302 220.536L293.55 229.894V236.133L284.302 226.775V236.392ZM271.973 236.392H276.597V215.857L276.596 215.858V215.857L262.725 229.894V236.133L271.973 226.774V236.392Z" fill="#001B28"/>
</g>
<circle cx="278" cy="90.8201" r="2.00272" fill="#7DE6CA"/>
<circle cx="278" cy="90.8201" r="3.44775" stroke="#7DE6CA" stroke-opacity="0.1" stroke-width="2.89005"/>
<circle cx="372.128" cy="130.374" r="2.00272" fill="#7DE6CA"/>
<circle cx="372.128" cy="130.374" r="3.44775" stroke="#7DE6CA" stroke-opacity="0.1" stroke-width="2.89005"/>
<g opacity="0.55">
<circle cx="371.926" cy="206.641" r="1.44503" fill="#7DE6CA"/>
<circle cx="371.926" cy="206.641" r="2.89005" stroke="#7DE6CA" stroke-opacity="0.1" stroke-width="2.89005"/>
</g>
<g opacity="0.7">
<circle cx="317.016" cy="184.484" r="1.44503" fill="#7DE6CA"/>
<circle cx="317.016" cy="184.484" r="2.89005" stroke="#7DE6CA" stroke-opacity="0.1" stroke-width="2.89005"/>
</g>
<g opacity="0.7">
<circle cx="396.974" cy="189.3" r="1.44503" fill="#7DE6CA"/>
<circle cx="396.974" cy="189.3" r="2.89005" stroke="#7DE6CA" stroke-opacity="0.1" stroke-width="2.89005"/>
</g>
<g opacity="0.7">
<circle cx="223.57" cy="223.018" r="1.44503" fill="#7DE6CA"/>
<circle cx="223.57" cy="223.018" r="2.89005" stroke="#7DE6CA" stroke-opacity="0.1" stroke-width="2.89005"/>
</g>
<g opacity="0.55">
<circle cx="277.518" cy="169.07" r="1.44503" fill="#7DE6CA"/>
<circle cx="277.518" cy="169.07" r="2.89005" stroke="#7DE6CA" stroke-opacity="0.1" stroke-width="2.89005"/>
</g>
<g opacity="0.55">
<circle cx="277.518" cy="279.22" r="1.44503" fill="#7DE6CA"/>
<circle cx="277.518" cy="279.22" r="2.89005" stroke="#7DE6CA" stroke-opacity="0.1" stroke-width="2.89005"/>
</g>
<g opacity="0.75">
<circle cx="316.572" cy="262.197" r="1.44503" fill="#7DE6CA"/>
<circle cx="316.572" cy="262.197" r="2.89005" stroke="#7DE6CA" stroke-opacity="0.1" stroke-width="2.89005"/>
</g>
<g opacity="0.12">
<circle cx="239.467" cy="317.272" r="1.44503" fill="#7DE6CA"/>
<circle cx="239.467" cy="317.272" r="2.89005" stroke="#7DE6CA" stroke-opacity="0.1" stroke-width="2.89005"/>
</g>
<g opacity="0.55">
<circle cx="317.978" cy="129.573" r="1.44503" fill="#7DE6CA"/>
<circle cx="317.978" cy="129.573" r="2.89005" stroke="#7DE6CA" stroke-opacity="0.1" stroke-width="2.89005"/>
</g>
<g opacity="0.22">
<circle cx="222.608" cy="301.05" r="1.44503" fill="#7DE6CA"/>
<circle cx="222.608" cy="301.05" r="2.89005" stroke="#7DE6CA" stroke-opacity="0.1" stroke-width="2.89005"/>
</g>
<g opacity="0.22">
<circle cx="317.016" cy="317.426" r="1.44503" fill="#7DE6CA"/>
<circle cx="317.016" cy="317.426" r="2.89005" stroke="#7DE6CA" stroke-opacity="0.1" stroke-width="2.89005"/>
</g>
<g opacity="0.55">
<circle cx="184.073" cy="223.982" r="1.44503" fill="#7DE6CA"/>
<circle cx="184.073" cy="223.982" r="2.89005" stroke="#7DE6CA" stroke-opacity="0.1" stroke-width="2.89005"/>
</g>
<g opacity="0.55">
<circle cx="211.048" cy="156.548" r="1.44503" fill="#7DE6CA"/>
<circle cx="211.048" cy="156.548" r="2.89005" stroke="#7DE6CA" stroke-opacity="0.1" stroke-width="2.89005"/>
</g>
<circle cx="411.181" cy="224.001" r="2.00272" fill="#7DE6CA"/>
<circle cx="411.181" cy="224.001" r="3.44775" stroke="#7DE6CA" stroke-opacity="0.1" stroke-width="2.89005"/>
<circle cx="371.628" cy="317.127" r="2.00272" fill="#7DE6CA"/>
<circle cx="371.628" cy="317.127" r="3.44775" stroke="#7DE6CA" stroke-opacity="0.1" stroke-width="2.89005"/>
<circle cx="277.499" cy="356.18" r="2.00272" fill="#7DE6CA"/>
<circle cx="277.499" cy="356.18" r="3.44775" stroke="#7DE6CA" stroke-opacity="0.1" stroke-width="2.89005"/>
<circle cx="183.873" cy="317.127" r="2.00272" fill="#7DE6CA"/>
<circle cx="183.873" cy="317.127" r="3.44775" stroke="#7DE6CA" stroke-opacity="0.1" stroke-width="2.89005"/>
<circle cx="144.819" cy="223" r="2.00272" fill="#7DE6CA"/>
<circle cx="144.819" cy="223" r="3.44775" stroke="#7DE6CA" stroke-opacity="0.1" stroke-width="2.89005"/>
<circle cx="183.873" cy="129.372" r="2.00272" fill="#7DE6CA"/>
<circle cx="183.873" cy="129.372" r="3.44775" stroke="#7DE6CA" stroke-opacity="0.1" stroke-width="2.89005"/>
<path d="M201.747 179.475L278 135.45L354.254 179.475V267.525L278 311.55L201.747 267.525V179.475Z" stroke="#33C69F" stroke-width="1.00136"/>
<g clip-path="url(#clip1)" filter="url(#filter1_d)">
<path d="M276.403 122.845C277.297 121.992 278.703 121.992 279.597 122.845C280.412 123.623 281.596 123.874 282.657 123.496C283.821 123.08 285.106 123.652 285.575 124.795C286.004 125.837 286.983 126.548 288.107 126.634C289.339 126.728 290.28 127.773 290.244 129.008C290.212 130.134 290.817 131.182 291.808 131.717C292.896 132.304 293.33 133.642 292.796 134.755C292.308 135.771 292.434 136.975 293.123 137.867C293.877 138.845 293.73 140.244 292.789 141.044C291.93 141.773 291.556 142.925 291.822 144.019C292.113 145.22 291.41 146.438 290.225 146.786C289.144 147.103 288.334 148.003 288.131 149.111C287.909 150.326 286.771 151.153 285.547 150.989C284.43 150.839 283.324 151.331 282.689 152.261C281.991 153.281 280.616 153.574 279.564 152.925C278.605 152.334 277.394 152.334 276.435 152.925C275.384 153.574 274.008 153.281 273.311 152.261C272.675 151.331 271.569 150.839 270.452 150.989C269.228 151.153 268.09 150.326 267.868 149.111C267.666 148.003 266.856 147.103 265.775 146.786C264.589 146.438 263.886 145.22 264.178 144.019C264.443 142.925 264.069 141.773 263.211 141.044C262.269 140.244 262.122 138.845 262.877 137.867C263.565 136.975 263.692 135.771 263.204 134.755C262.669 133.642 263.104 132.304 264.191 131.717C265.182 131.182 265.788 130.134 265.755 129.008C265.72 127.773 266.661 126.728 267.893 126.634C269.016 126.548 269.995 125.837 270.424 124.795C270.894 123.652 272.179 123.08 273.342 123.496C274.403 123.874 275.587 123.623 276.403 122.845Z" fill="#142433" stroke="#33C69F" stroke-width="0.667574"/>
<path d="M276.752 126.216C277.544 125.461 278.79 125.461 279.582 126.216C280.143 126.751 280.958 126.924 281.687 126.664C282.719 126.296 283.857 126.803 284.274 127.815C284.568 128.532 285.242 129.021 286.015 129.08C287.106 129.163 287.94 130.089 287.909 131.184C287.887 131.959 288.303 132.68 288.985 133.048C289.948 133.568 290.334 134.753 289.86 135.74C289.524 136.439 289.611 137.267 290.085 137.88C290.753 138.747 290.623 139.987 289.789 140.696C289.198 141.197 288.941 141.989 289.124 142.742C289.382 143.806 288.759 144.886 287.708 145.194C286.965 145.412 286.407 146.031 286.268 146.793C286.071 147.87 285.063 148.603 283.978 148.457C283.21 148.354 282.449 148.693 282.012 149.332C281.394 150.236 280.175 150.495 279.243 149.921C278.583 149.514 277.751 149.514 277.091 149.921C276.159 150.495 274.94 150.236 274.322 149.332C273.885 148.693 273.124 148.354 272.356 148.457C271.271 148.603 270.263 147.87 270.066 146.793C269.927 146.031 269.369 145.412 268.626 145.194C267.575 144.886 266.952 143.806 267.21 142.742C267.393 141.989 267.136 141.197 266.545 140.696C265.711 139.987 265.581 138.747 266.249 137.88C266.723 137.267 266.81 136.439 266.474 135.74C266 134.753 266.386 133.568 267.349 133.048C268.031 132.68 268.447 131.959 268.425 131.184C268.394 130.089 269.228 129.163 270.319 129.08C271.092 129.021 271.766 128.532 272.06 127.815C272.477 126.803 273.615 126.296 274.647 126.664C275.376 126.924 276.191 126.751 276.752 126.216Z" fill="#33C69F" fill-opacity="0.1"/>
<circle cx="278" cy="137.883" r="7.17642" stroke="white" stroke-opacity="0.1" stroke-width="0.333787"/>
<circle cx="278" cy="137.883" r="8.84535" stroke="white" stroke-opacity="0.2" stroke-width="0.333787"/>
<g filter="url(#filter2_d)">
<path fill-rule="evenodd" clip-rule="evenodd" d="M275.601 138.075L274.11 140.203C273.616 139.484 273.326 138.614 273.326 137.675C273.326 135.946 274.309 134.447 275.746 133.705C275.111 134.104 274.794 134.731 274.794 135.587C274.794 136.378 275.096 137.26 275.601 138.075ZM275.907 138.525C276.893 139.862 278.418 140.919 280 140.919C280.311 140.919 280.602 140.916 280.872 140.908C280.07 141.672 278.986 142.141 277.792 142.141C276.451 142.141 275.248 141.55 274.43 140.614L275.907 138.525ZM278.911 133.352L275.952 137.574C275.516 136.927 275.247 136.218 275.247 135.535C275.247 134.192 276.02 133.418 277.568 133.215C277.642 133.212 277.716 133.21 277.792 133.21C278.178 133.21 278.554 133.259 278.911 133.352ZM279.071 133.396C280.913 133.946 282.257 135.654 282.257 137.675C282.257 137.857 282.246 138.036 282.225 138.211C282.11 138.613 281.952 138.949 281.75 139.217L279.071 133.396ZM281.157 139.747C280.832 139.934 280.446 140.027 280 140.027C278.693 140.027 277.228 139.16 276.275 138.005L278.995 134.156L281.157 139.747Z" fill="#33C69F"/>
</g>
</g>
<g filter="url(#filter3_d)">
<path d="M352.506 165.404C353.4 164.551 354.806 164.551 355.7 165.404C356.516 166.181 357.7 166.433 358.761 166.054C359.924 165.639 361.209 166.211 361.679 167.353C362.107 168.396 363.087 169.107 364.21 169.193C365.442 169.286 366.383 170.331 366.348 171.566C366.315 172.693 366.92 173.741 367.912 174.276C368.999 174.863 369.434 176.2 368.899 177.314C368.411 178.33 368.538 179.534 369.226 180.426C369.981 181.404 369.834 182.802 368.892 183.602C368.034 184.332 367.66 185.483 367.925 186.578C368.217 187.779 367.514 188.997 366.328 189.344C365.247 189.662 364.437 190.561 364.235 191.67C364.013 192.885 362.875 193.712 361.65 193.547C360.534 193.397 359.428 193.89 358.792 194.82C358.095 195.84 356.719 196.132 355.668 195.484C354.708 194.893 353.498 194.893 352.539 195.484C351.487 196.132 350.111 195.84 349.414 194.82C348.779 193.89 347.673 193.397 346.556 193.547C345.331 193.712 344.194 192.885 343.972 191.67C343.769 190.561 342.959 189.662 341.878 189.344C340.693 188.997 339.99 187.779 340.281 186.578C340.547 185.483 340.173 184.332 339.314 183.602C338.373 182.802 338.226 181.404 338.98 180.426C339.668 179.534 339.795 178.33 339.307 177.314C338.773 176.2 339.207 174.863 340.294 174.276C341.286 173.741 341.891 172.693 341.859 171.566C341.823 170.331 342.764 169.286 343.996 169.193C345.12 169.107 346.099 168.396 346.527 167.353C346.997 166.211 348.282 165.639 349.446 166.054C350.507 166.433 351.691 166.181 352.506 165.404Z" fill="#142433" stroke="#33C69F" stroke-width="0.667574"/>
<path d="M352.855 168.775C353.647 168.019 354.894 168.019 355.686 168.775C356.247 169.31 357.061 169.483 357.791 169.222C358.822 168.854 359.961 169.361 360.377 170.374C360.672 171.091 361.345 171.58 362.118 171.639C363.21 171.722 364.044 172.648 364.012 173.742C363.99 174.517 364.406 175.238 365.088 175.606C366.052 176.126 366.437 177.311 365.963 178.299C365.628 178.997 365.715 179.825 366.188 180.439C366.857 181.306 366.727 182.545 365.892 183.254C365.302 183.756 365.044 184.548 365.227 185.301C365.486 186.365 364.862 187.444 363.812 187.752C363.068 187.971 362.511 188.589 362.372 189.352C362.175 190.429 361.167 191.161 360.081 191.016C359.313 190.912 358.553 191.251 358.116 191.891C357.498 192.795 356.279 193.054 355.347 192.479C354.687 192.073 353.854 192.073 353.195 192.479C352.262 193.054 351.043 192.795 350.425 191.891C349.988 191.251 349.228 190.912 348.46 191.016C347.374 191.161 346.366 190.429 346.169 189.352C346.03 188.589 345.473 187.971 344.729 187.752C343.679 187.444 343.056 186.365 343.314 185.301C343.497 184.548 343.239 183.756 342.649 183.254C341.814 182.545 341.684 181.306 342.353 180.439C342.826 179.825 342.913 178.997 342.578 178.299C342.104 177.311 342.489 176.126 343.453 175.606C344.135 175.238 344.551 174.517 344.529 173.742C344.497 172.648 345.331 171.722 346.423 171.639C347.196 171.58 347.869 171.091 348.164 170.374C348.58 169.361 349.719 168.854 350.75 169.222C351.48 169.483 352.294 169.31 352.855 168.775Z" fill="#33C69F" fill-opacity="0.1"/>
<circle cx="354.103" cy="180.442" r="7.17642" stroke="white" stroke-opacity="0.1" stroke-width="0.333787"/>
<circle cx="354.103" cy="180.442" r="8.84535" stroke="white" stroke-opacity="0.2" stroke-width="0.333787"/>
<path d="M359.611 180.442C359.611 177.41 357.148 174.944 354.118 174.935C354.117 174.935 354.116 174.935 354.114 174.935C354.111 174.935 354.107 174.935 354.103 174.935C354.099 174.935 354.096 174.935 354.092 174.935C354.09 174.935 354.089 174.935 354.087 174.935C351.058 174.944 348.596 177.411 348.596 180.442C348.596 183.479 351.066 185.95 354.103 185.95C357.14 185.95 359.611 183.479 359.611 180.442ZM356.935 182.6C357.108 182.022 357.208 181.395 357.231 180.732H359.016C358.956 181.749 358.589 182.682 358.003 183.442C357.68 183.117 357.323 182.832 356.935 182.6ZM350.201 183.44C349.616 182.681 349.25 181.748 349.19 180.732H350.976C350.998 181.393 351.098 182.02 351.271 182.597C350.882 182.83 350.525 183.115 350.201 183.44ZM350.202 177.444C350.525 177.769 350.882 178.054 351.271 178.287C351.098 178.864 350.998 179.49 350.976 180.152H349.19C349.25 179.136 349.616 178.203 350.202 177.444ZM358.003 177.442C358.589 178.202 358.957 179.135 359.016 180.152H357.231C357.208 179.49 357.108 178.863 356.935 178.285C357.323 178.052 357.68 177.767 358.003 177.442ZM356.651 180.152H354.393V179.056C355.097 179.019 355.781 178.853 356.41 178.563C356.549 179.057 356.631 179.59 356.651 180.152ZM354.393 178.476V175.718C355.216 176.232 355.843 177.024 356.226 178.006C355.656 178.279 355.034 178.438 354.393 178.476ZM353.813 175.718V178.476C353.172 178.439 352.55 178.28 351.98 178.007C352.363 177.025 352.99 176.233 353.813 175.718ZM353.813 179.056V180.152H351.555C351.576 179.59 351.658 179.058 351.796 178.564C352.425 178.854 353.109 179.019 353.813 179.056ZM351.555 180.732H353.813V181.828C353.109 181.865 352.425 182.03 351.796 182.32C351.658 181.826 351.576 181.294 351.555 180.732ZM353.813 182.408V185.167C352.99 184.652 352.363 183.859 351.98 182.876C352.55 182.604 353.172 182.445 353.813 182.408ZM354.393 185.167V182.408C355.034 182.446 355.655 182.605 356.226 182.878C355.843 183.86 355.215 184.652 354.393 185.167ZM354.393 181.828V180.732H356.651C356.63 181.294 356.549 181.827 356.41 182.322C355.781 182.031 355.097 181.865 354.393 181.828ZM357.624 177.001C357.355 177.277 357.058 177.519 356.737 177.722C356.406 176.904 355.918 176.205 355.297 175.666C356.195 175.891 356.997 176.359 357.624 177.001ZM352.91 175.666C352.288 176.205 351.8 176.905 351.469 177.724C351.147 177.52 350.85 177.279 350.58 177.003C351.208 176.36 352.011 175.891 352.91 175.666ZM350.58 183.881C350.85 183.605 351.147 183.363 351.469 183.16C351.8 183.979 352.288 184.679 352.91 185.217C352.01 184.993 351.208 184.524 350.58 183.881ZM355.297 185.218C355.918 184.68 356.406 183.981 356.737 183.162C357.058 183.366 357.355 183.607 357.624 183.883C356.997 184.525 356.195 184.993 355.297 185.218Z" fill="#33C69F"/>
</g>
<g filter="url(#filter4_d)">
<path d="M200.299 165.404C201.193 164.551 202.599 164.551 203.493 165.404C204.309 166.181 205.493 166.433 206.554 166.054C207.717 165.639 209.002 166.211 209.472 167.353C209.9 168.396 210.88 169.107 212.003 169.193C213.235 169.286 214.176 170.331 214.141 171.566C214.108 172.693 214.713 173.741 215.705 174.276C216.792 174.863 217.227 176.2 216.692 177.314C216.204 178.33 216.331 179.534 217.019 180.426C217.774 181.404 217.627 182.802 216.685 183.602C215.827 184.332 215.452 185.483 215.718 186.578C216.01 187.779 215.307 188.997 214.121 189.344C213.04 189.662 212.23 190.561 212.028 191.67C211.806 192.885 210.668 193.712 209.443 193.547C208.327 193.397 207.221 193.89 206.585 194.82C205.888 195.84 204.512 196.132 203.461 195.484C202.501 194.893 201.291 194.893 200.332 195.484C199.28 196.132 197.904 195.84 197.207 194.82C196.572 193.89 195.466 193.397 194.349 193.547C193.124 193.712 191.987 192.885 191.765 191.67C191.562 190.561 190.752 189.662 189.671 189.344C188.486 188.997 187.782 187.779 188.074 186.578C188.34 185.483 187.966 184.332 187.107 183.602C186.166 182.802 186.019 181.404 186.773 180.426C187.461 179.534 187.588 178.33 187.1 177.314C186.566 176.2 187 174.863 188.087 174.276C189.079 173.741 189.684 172.693 189.652 171.566C189.616 170.331 190.557 169.286 191.789 169.193C192.913 169.107 193.892 168.396 194.32 167.353C194.79 166.211 196.075 165.639 197.239 166.054C198.3 166.433 199.484 166.181 200.299 165.404Z" fill="#142433" stroke="#33C69F" stroke-width="0.667574"/>
<path d="M200.648 168.775C201.44 168.019 202.687 168.019 203.479 168.775C204.04 169.31 204.854 169.483 205.584 169.222C206.615 168.854 207.754 169.361 208.17 170.374C208.465 171.091 209.138 171.58 209.911 171.639C211.003 171.722 211.837 172.648 211.805 173.742C211.783 174.517 212.199 175.238 212.881 175.606C213.845 176.126 214.23 177.311 213.756 178.299C213.421 178.997 213.508 179.825 213.981 180.439C214.65 181.306 214.52 182.545 213.685 183.254C213.095 183.756 212.837 184.548 213.02 185.301C213.278 186.365 212.655 187.444 211.605 187.752C210.861 187.971 210.304 188.589 210.165 189.352C209.968 190.429 208.96 191.161 207.874 191.016C207.106 190.912 206.346 191.251 205.909 191.891C205.291 192.795 204.072 193.054 203.139 192.479C202.48 192.073 201.647 192.073 200.987 192.479C200.055 193.054 198.836 192.795 198.218 191.891C197.781 191.251 197.021 190.912 196.253 191.016C195.167 191.161 194.159 190.429 193.962 189.352C193.823 188.589 193.266 187.971 192.522 187.752C191.472 187.444 190.849 186.365 191.107 185.301C191.29 184.548 191.032 183.756 190.442 183.254C189.607 182.545 189.477 181.306 190.146 180.439C190.619 179.825 190.706 178.997 190.371 178.299C189.897 177.311 190.282 176.126 191.246 175.606C191.928 175.238 192.344 174.517 192.322 173.742C192.29 172.648 193.124 171.722 194.216 171.639C194.989 171.58 195.662 171.091 195.957 170.374C196.373 169.361 197.512 168.854 198.543 169.222C199.273 169.483 200.087 169.31 200.648 168.775Z" fill="#33C69F" fill-opacity="0.1"/>
<circle cx="201.896" cy="180.442" r="7.17642" stroke="white" stroke-opacity="0.1" stroke-width="0.333787"/>
<circle cx="201.896" cy="180.442" r="8.84535" stroke="white" stroke-opacity="0.2" stroke-width="0.333787"/>
<path d="M197.821 173.933H194.887V174.666L195.376 175.155V185.914L194.887 186.403V186.892H197.821V186.403L197.332 185.914V180.535H199.288V185.914L198.799 186.403V186.892H201.733V186.403L201.244 185.914V175.155L201.733 174.666V173.933H198.799V174.666L199.288 175.155V179.557H197.332V175.155L197.821 174.666V173.933Z" fill="#12926F"/>
<path d="M202.467 176.622V173.933C202.956 174.014 204.276 173.933 205.646 173.933C207.015 173.933 208.335 174.014 208.824 173.933V176.622C208.433 177.014 208.172 176.785 208.091 176.622C208.091 175.253 207.113 174.911 206.624 174.911V185.792L207.113 186.403V186.892H204.178V186.403L204.668 185.792V174.911C203.298 174.911 203.119 176.052 203.2 176.622C202.809 177.014 202.548 176.785 202.467 176.622Z" fill="#33C69F"/>
</g>
<g filter="url(#filter5_d)">
<path d="M352.506 251.02C353.4 250.167 354.806 250.167 355.7 251.02C356.516 251.798 357.7 252.049 358.761 251.67C359.924 251.255 361.209 251.827 361.679 252.97C362.107 254.012 363.087 254.723 364.21 254.809C365.442 254.903 366.383 255.948 366.348 257.183C366.315 258.309 366.92 259.357 367.912 259.892C368.999 260.479 369.434 261.816 368.899 262.93C368.411 263.946 368.538 265.15 369.226 266.042C369.981 267.02 369.834 268.419 368.892 269.219C368.034 269.948 367.66 271.099 367.925 272.194C368.217 273.395 367.514 274.613 366.328 274.961C365.247 275.278 364.437 276.177 364.235 277.286C364.013 278.501 362.875 279.328 361.65 279.163C360.534 279.013 359.428 279.506 358.792 280.436C358.095 281.456 356.719 281.748 355.668 281.1C354.708 280.509 353.498 280.509 352.539 281.1C351.487 281.748 350.111 281.456 349.414 280.436C348.779 279.506 347.673 279.013 346.556 279.163C345.331 279.328 344.194 278.501 343.972 277.286C343.769 276.177 342.959 275.278 341.878 274.961C340.693 274.613 339.99 273.395 340.281 272.194C340.547 271.099 340.173 269.948 339.314 269.219C338.373 268.419 338.226 267.02 338.98 266.042C339.668 265.15 339.795 263.946 339.307 262.93C338.773 261.816 339.207 260.479 340.294 259.892C341.286 259.357 341.891 258.309 341.859 257.183C341.823 255.948 342.764 254.903 343.996 254.809C345.12 254.723 346.099 254.012 346.527 252.97C346.997 251.827 348.282 251.255 349.446 251.67C350.507 252.049 351.691 251.798 352.506 251.02Z" fill="#142433" stroke="#33C69F" stroke-width="0.667574"/>
<path d="M352.855 254.391C353.647 253.635 354.894 253.635 355.686 254.391C356.247 254.926 357.061 255.099 357.791 254.839C358.822 254.47 359.961 254.977 360.377 255.99C360.672 256.707 361.345 257.196 362.118 257.255C363.21 257.338 364.044 258.264 364.012 259.359C363.99 260.133 364.406 260.854 365.088 261.222C366.052 261.742 366.437 262.928 365.963 263.915C365.628 264.613 365.715 265.441 366.188 266.055C366.857 266.922 366.727 268.161 365.892 268.87C365.302 269.372 365.044 270.164 365.227 270.917C365.486 271.981 364.862 273.06 363.812 273.369C363.068 273.587 362.511 274.206 362.372 274.968C362.175 276.045 361.167 276.778 360.081 276.632C359.313 276.529 358.553 276.867 358.116 277.507C357.498 278.411 356.279 278.67 355.347 278.096C354.687 277.689 353.854 277.689 353.195 278.096C352.262 278.67 351.043 278.411 350.425 277.507C349.988 276.867 349.228 276.529 348.46 276.632C347.374 276.778 346.366 276.045 346.169 274.968C346.03 274.206 345.473 273.587 344.729 273.369C343.679 273.06 343.056 271.981 343.314 270.917C343.497 270.164 343.239 269.372 342.649 268.87C341.814 268.161 341.684 266.922 342.353 266.055C342.826 265.441 342.913 264.613 342.578 263.915C342.104 262.928 342.489 261.742 343.453 261.222C344.135 260.854 344.551 260.133 344.529 259.359C344.497 258.264 345.331 257.338 346.423 257.255C347.196 257.196 347.869 256.707 348.164 255.99C348.58 254.977 349.719 254.47 350.75 254.839C351.48 255.099 352.294 254.926 352.855 254.391Z" fill="#33C69F" fill-opacity="0.1"/>
<circle cx="354.103" cy="266.058" r="7.17642" stroke="white" stroke-opacity="0.1" stroke-width="0.333787"/>
<circle cx="354.103" cy="266.058" r="8.84535" stroke="white" stroke-opacity="0.2" stroke-width="0.333787"/>
<path d="M354.255 260.273H353.761V267.694H354.255V260.273Z" fill="#33C69F"/>
<path d="M354.255 268.684H353.761V273.631H354.255V268.684Z" fill="#33C69F"/>
<path d="M354.007 260.521C353.325 260.521 352.771 259.966 352.771 259.284C352.771 258.602 353.325 258.047 354.007 258.047C354.689 258.047 355.244 258.602 355.244 259.284C355.244 259.966 354.689 260.521 354.007 260.521ZM354.007 258.542C353.598 258.542 353.265 258.875 353.265 259.284C353.265 259.693 353.598 260.026 354.007 260.026C354.416 260.026 354.749 259.693 354.749 259.284C354.749 258.875 354.416 258.542 354.007 258.542Z" fill="#33C69F"/>
<path fill-rule="evenodd" clip-rule="evenodd" d="M354.008 273.878C353.189 273.878 352.523 273.212 352.523 272.394C352.523 272.069 352.626 271.761 352.821 271.503L353.216 271.8C353.086 271.972 353.018 272.178 353.018 272.394C353.018 272.939 353.462 273.383 354.008 273.383C354.553 273.383 354.997 272.939 354.997 272.394C354.997 271.953 354.573 271.71 354.018 271.438L353.897 271.378L354.118 270.936L354.236 270.993C354.736 271.239 355.492 271.609 355.492 272.394C355.492 273.212 354.826 273.878 354.008 273.878Z" fill="#33C69F"/>
<path fill-rule="evenodd" clip-rule="evenodd" d="M353.897 271.379C353.853 271.357 353.803 271.333 353.748 271.307C353.147 271.018 352.028 270.481 352.028 269.426C352.028 268.637 352.724 268.226 353.139 267.98L353.391 268.407C352.916 268.687 352.523 268.958 352.523 269.426C352.523 270.17 353.459 270.619 353.962 270.861C354.02 270.888 354.072 270.913 354.118 270.936L353.897 271.379Z" fill="#33C69F"/>
<path fill-rule="evenodd" clip-rule="evenodd" d="M355.107 270.884L354.886 270.441C355.294 270.237 355.491 269.905 355.491 269.425C355.491 268.694 354.533 268.226 354.019 267.975L353.896 267.915L354.118 267.473L354.236 267.531C354.804 267.808 355.986 268.384 355.986 269.425C355.986 270.092 355.682 270.596 355.107 270.884Z" fill="#33C69F"/>
<path fill-rule="evenodd" clip-rule="evenodd" d="M354.008 267.97L353.779 267.857C353.181 267.566 351.781 266.885 351.781 265.715C351.781 264.585 352.643 263.983 353.265 263.983V264.478C352.92 264.478 352.276 264.841 352.276 265.715C352.276 266.575 353.481 267.162 353.995 267.412L354.008 267.418L354.02 267.413C354.534 267.162 355.739 266.575 355.739 265.715C355.739 264.841 355.095 264.478 354.75 264.478V263.983C355.372 263.983 356.234 264.585 356.234 265.715C356.234 266.885 354.834 267.566 354.236 267.857L354.008 267.97Z" fill="#33C69F"/>
<path fill-rule="evenodd" clip-rule="evenodd" d="M353.265 263.489H352.276C349.758 263.489 346.815 262.73 346.104 260.598C346.079 260.523 346.092 260.44 346.139 260.376C346.185 260.311 346.26 260.273 346.339 260.273C348.439 260.273 349.192 259.823 349.797 259.461C350.179 259.233 350.508 259.036 351.039 259.036C351.698 259.036 352.276 259.614 352.276 260.273V261.015C352.276 261.288 352.498 261.51 352.771 261.51H353.265V262.004H352.771C352.225 262.004 351.781 261.561 351.781 261.015V260.273C351.781 259.855 351.382 259.531 351.039 259.531C350.645 259.531 350.396 259.68 350.051 259.886C349.464 260.237 348.672 260.71 346.71 260.763C347.295 261.894 349.008 262.994 352.276 262.994H353.265V263.489Z" fill="#33C69F"/>
<path d="M351.781 262.252H351.286V263.241H351.781V262.252Z" fill="#33C69F"/>
<path d="M350.791 262.005H350.296V263.242H350.791V262.005Z" fill="#33C69F"/>
<path d="M349.801 261.757H349.307V262.994H349.801V261.757Z" fill="#33C69F"/>
<path d="M348.813 261.51H348.318V262.499H348.813V261.51Z" fill="#33C69F"/>
<path fill-rule="evenodd" clip-rule="evenodd" d="M355.739 263.489H354.75V262.994H355.739C359.007 262.994 360.72 261.894 361.305 260.763C359.343 260.71 358.551 260.236 357.964 259.885C357.62 259.68 357.371 259.531 356.976 259.531C356.633 259.531 356.234 259.855 356.234 260.273V261.015C356.234 261.561 355.79 262.004 355.245 262.004H354.75V261.51H355.245C355.518 261.51 355.739 261.288 355.739 261.015V260.273C355.739 259.614 356.317 259.036 356.976 259.036C357.507 259.036 357.837 259.233 358.218 259.461C358.823 259.823 359.577 260.273 361.676 260.273C361.756 260.273 361.83 260.311 361.877 260.376C361.923 260.44 361.936 260.523 361.911 260.598C361.2 262.73 358.257 263.489 355.739 263.489Z" fill="#33C69F"/>
<path d="M356.729 262.252H356.234V263.241H356.729V262.252Z" fill="#33C69F"/>
<path d="M357.718 262.005H357.224V263.242H357.718V262.005Z" fill="#33C69F"/>
<path d="M358.708 261.757H358.213V262.994H358.708V261.757Z" fill="#33C69F"/>
<path d="M359.697 261.51H359.202V262.499H359.697V261.51Z" fill="#33C69F"/>
</g>
<g filter="url(#filter6_d)">
<path d="M200.299 251.02C201.193 250.167 202.599 250.167 203.493 251.02C204.309 251.798 205.493 252.049 206.554 251.67C207.717 251.255 209.002 251.827 209.472 252.97C209.9 254.012 210.88 254.723 212.003 254.809C213.235 254.903 214.176 255.948 214.141 257.183C214.108 258.309 214.713 259.357 215.705 259.892C216.792 260.479 217.227 261.816 216.692 262.93C216.204 263.946 216.331 265.15 217.019 266.042C217.774 267.02 217.627 268.419 216.685 269.219C215.827 269.948 215.452 271.099 215.718 272.194C216.01 273.395 215.307 274.613 214.121 274.961C213.04 275.278 212.23 276.177 212.028 277.286C211.806 278.501 210.668 279.328 209.443 279.163C208.327 279.013 207.221 279.506 206.585 280.436C205.888 281.456 204.512 281.748 203.461 281.1C202.501 280.509 201.291 280.509 200.332 281.1C199.28 281.748 197.904 281.456 197.207 280.436C196.572 279.506 195.466 279.013 194.349 279.163C193.124 279.328 191.987 278.501 191.765 277.286C191.562 276.177 190.752 275.278 189.671 274.961C188.486 274.613 187.782 273.395 188.074 272.194C188.34 271.099 187.966 269.948 187.107 269.219C186.166 268.419 186.019 267.02 186.773 266.042C187.461 265.15 187.588 263.946 187.1 262.93C186.566 261.816 187 260.479 188.087 259.892C189.079 259.357 189.684 258.309 189.652 257.183C189.616 255.948 190.557 254.903 191.789 254.809C192.913 254.723 193.892 254.012 194.32 252.97C194.79 251.827 196.075 251.255 197.239 251.67C198.3 252.049 199.484 251.798 200.299 251.02Z" fill="#142433" stroke="#33C69F" stroke-width="0.667574"/>
<path d="M200.648 254.391C201.44 253.635 202.687 253.635 203.479 254.391C204.04 254.926 204.854 255.099 205.584 254.839C206.615 254.47 207.754 254.977 208.17 255.99C208.465 256.707 209.138 257.196 209.911 257.255C211.003 257.338 211.837 258.264 211.805 259.359C211.783 260.133 212.199 260.854 212.881 261.222C213.845 261.742 214.23 262.928 213.756 263.915C213.421 264.613 213.508 265.441 213.981 266.055C214.65 266.922 214.52 268.161 213.685 268.87C213.095 269.372 212.837 270.164 213.02 270.917C213.278 271.981 212.655 273.06 211.605 273.369C210.861 273.587 210.304 274.206 210.165 274.968C209.968 276.045 208.96 276.778 207.874 276.632C207.106 276.529 206.346 276.867 205.909 277.507C205.291 278.411 204.072 278.67 203.139 278.096C202.48 277.689 201.647 277.689 200.987 278.096C200.055 278.67 198.836 278.411 198.218 277.507C197.781 276.867 197.021 276.529 196.253 276.632C195.167 276.778 194.159 276.045 193.962 274.968C193.823 274.206 193.266 273.587 192.522 273.369C191.472 273.06 190.849 271.981 191.107 270.917C191.29 270.164 191.032 269.372 190.442 268.87C189.607 268.161 189.477 266.922 190.146 266.055C190.619 265.441 190.706 264.613 190.371 263.915C189.897 262.928 190.282 261.742 191.246 261.222C191.928 260.854 192.344 260.133 192.322 259.359C192.29 258.264 193.124 257.338 194.216 257.255C194.989 257.196 195.662 256.707 195.957 255.99C196.373 254.977 197.512 254.47 198.543 254.839C199.273 255.099 200.087 254.926 200.648 254.391Z" fill="#33C69F" fill-opacity="0.1"/>
<circle cx="201.896" cy="266.058" r="7.17642" stroke="white" stroke-opacity="0.1" stroke-width="0.333787"/>
<circle cx="201.896" cy="266.058" r="8.84535" stroke="white" stroke-opacity="0.2" stroke-width="0.333787"/>
<path fill-rule="evenodd" clip-rule="evenodd" d="M201.521 260.694L202.155 260.189L202.788 260.694L202.547 259.878L203.191 259.373H202.398L202.155 258.548L201.912 259.374L201.119 259.373L201.762 259.878L201.521 260.694Z" fill="#33C69F"/>
<path fill-rule="evenodd" clip-rule="evenodd" d="M198.414 261.23L199.048 260.726L199.681 261.23L199.44 260.414L200.084 259.91H199.29L199.047 259.084L198.805 259.911L198.012 259.91L198.655 260.414L198.414 261.23Z" fill="#33C69F"/>
<path fill-rule="evenodd" clip-rule="evenodd" d="M196.457 261.767L196.214 262.594L195.421 262.593L196.064 263.097L195.823 263.912L196.457 263.408L197.091 263.912L196.849 263.097L197.493 262.593H196.7L196.457 261.767Z" fill="#33C69F"/>
<path fill-rule="evenodd" clip-rule="evenodd" d="M195.422 266.627L196.055 267.131L195.814 266.316L196.458 265.812H195.665L195.422 264.985L195.179 265.813L194.386 265.812L195.029 266.316L194.788 267.131L195.422 266.627Z" fill="#33C69F"/>
<path fill-rule="evenodd" clip-rule="evenodd" d="M196.7 269.03L196.457 268.204L196.214 269.031L195.421 269.03L196.064 269.534L195.823 270.35L196.457 269.845L197.091 270.35L196.849 269.534L197.493 269.03H196.7Z" fill="#33C69F"/>
<path fill-rule="evenodd" clip-rule="evenodd" d="M199.29 271.712L199.047 270.887L198.805 271.713L198.012 271.712L198.655 272.217L198.414 273.033L199.048 272.528L199.681 273.033L199.44 272.217L200.084 271.712H199.29Z" fill="#33C69F"/>
<path fill-rule="evenodd" clip-rule="evenodd" d="M202.398 272.248L202.155 271.422L201.912 272.249L201.119 272.248L201.762 272.752L201.522 273.568L202.155 273.063L202.788 273.568L202.547 272.752L203.191 272.248H202.398Z" fill="#33C69F"/>
<path fill-rule="evenodd" clip-rule="evenodd" d="M205.505 271.712L205.262 270.887L205.019 271.713L204.227 271.712L204.869 272.217L204.629 273.033L205.262 272.528L205.896 273.033L205.655 272.217L206.298 271.712H205.505Z" fill="#33C69F"/>
<path fill-rule="evenodd" clip-rule="evenodd" d="M208.096 269.03L207.852 268.204L207.609 269.031L206.816 269.03L207.46 269.534L207.219 270.35L207.852 269.845L208.486 270.35L208.244 269.534L208.888 269.03H208.096Z" fill="#33C69F"/>
<path fill-rule="evenodd" clip-rule="evenodd" d="M209.407 265.812H208.614L208.37 264.985L208.128 265.812L207.335 265.812L207.978 266.316L207.738 267.131L208.37 266.626L209.004 267.131L208.763 266.316L209.407 265.812Z" fill="#33C69F"/>
<path fill-rule="evenodd" clip-rule="evenodd" d="M207.219 263.912L207.852 263.408L208.486 263.912L208.245 263.097L208.888 262.593H208.096L207.852 261.767L207.609 262.594L206.816 262.593L207.46 263.097L207.219 263.912Z" fill="#33C69F"/>
<path fill-rule="evenodd" clip-rule="evenodd" d="M205.262 259.084L205.02 259.911L204.227 259.909L204.869 260.414L204.629 261.23L205.263 260.725L205.896 261.23L205.655 260.414L206.298 259.909H205.504L205.262 259.084Z" fill="#33C69F"/>
</g>
<g filter="url(#filter7_d)">
<path d="M276.403 294.079C277.297 293.226 278.703 293.226 279.597 294.079C280.412 294.856 281.596 295.108 282.657 294.729C283.821 294.314 285.106 294.886 285.575 296.028C286.004 297.07 286.983 297.782 288.107 297.867C289.339 297.961 290.28 299.006 290.244 300.241C290.212 301.367 290.817 302.416 291.808 302.951C292.896 303.538 293.33 304.875 292.796 305.989C292.308 307.004 292.434 308.208 293.123 309.1C293.877 310.079 293.73 311.477 292.789 312.277C291.93 313.007 291.556 314.158 291.822 315.253C292.113 316.454 291.41 317.671 290.225 318.019C289.144 318.336 288.334 319.236 288.131 320.344C287.909 321.56 286.771 322.386 285.547 322.222C284.43 322.072 283.324 322.564 282.689 323.495C281.991 324.515 280.616 324.807 279.564 324.159C278.605 323.567 277.394 323.567 276.435 324.159C275.384 324.807 274.008 324.515 273.311 323.495C272.675 322.564 271.569 322.072 270.452 322.222C269.228 322.386 268.09 321.56 267.868 320.344C267.666 319.236 266.856 318.336 265.775 318.019C264.589 317.671 263.886 316.454 264.178 315.253C264.443 314.158 264.069 313.007 263.211 312.277C262.269 311.477 262.122 310.079 262.877 309.1C263.565 308.208 263.692 307.004 263.204 305.989C262.669 304.875 263.104 303.538 264.191 302.951C265.182 302.416 265.788 301.367 265.755 300.241C265.72 299.006 266.661 297.961 267.893 297.867C269.016 297.782 269.995 297.07 270.424 296.028C270.894 294.886 272.179 294.314 273.342 294.729C274.403 295.108 275.587 294.856 276.403 294.079Z" fill="#142433" stroke="#33C69F" stroke-width="0.667574"/>
<path d="M276.752 297.45C277.544 296.694 278.79 296.694 279.582 297.45C280.143 297.985 280.958 298.158 281.687 297.897C282.719 297.529 283.857 298.036 284.274 299.049C284.568 299.765 285.242 300.255 286.015 300.314C287.106 300.397 287.94 301.323 287.909 302.417C287.887 303.192 288.303 303.913 288.985 304.281C289.948 304.801 290.334 305.986 289.86 306.973C289.524 307.672 289.611 308.5 290.085 309.114C290.753 309.98 290.623 311.22 289.789 311.929C289.198 312.431 288.941 313.223 289.124 313.976C289.382 315.04 288.759 316.119 287.708 316.427C286.965 316.645 286.407 317.264 286.268 318.026C286.071 319.104 285.063 319.836 283.978 319.69C283.21 319.587 282.449 319.926 282.012 320.566C281.394 321.47 280.175 321.729 279.243 321.154C278.583 320.748 277.751 320.748 277.091 321.154C276.159 321.729 274.94 321.47 274.322 320.566C273.885 319.926 273.124 319.587 272.356 319.69C271.271 319.836 270.263 319.104 270.066 318.026C269.927 317.264 269.369 316.645 268.626 316.427C267.575 316.119 266.952 315.04 267.21 313.976C267.393 313.223 267.136 312.431 266.545 311.929C265.711 311.22 265.581 309.98 266.249 309.114C266.723 308.5 266.81 307.672 266.474 306.973C266 305.986 266.386 304.801 267.349 304.281C268.031 303.913 268.447 303.192 268.425 302.417C268.394 301.323 269.228 300.397 270.319 300.314C271.092 300.255 271.766 299.765 272.06 299.049C272.477 298.036 273.615 297.529 274.647 297.897C275.376 298.158 276.191 297.985 276.752 297.45Z" fill="#33C69F" fill-opacity="0.1"/>
<circle cx="278" cy="309.117" r="7.17642" stroke="white" stroke-opacity="0.1" stroke-width="0.333787"/>
<circle cx="278" cy="309.117" r="8.84535" stroke="white" stroke-opacity="0.2" stroke-width="0.333787"/>
<path d="M276.392 300.104H270.536C270.243 302.989 271.39 306.114 272 307.316L275.66 314.168C278.588 313.591 280.539 316.331 281.149 317.774L284.077 317.053C286.126 316.187 285.419 314.288 284.809 313.447L276.392 305.513V300.104Z" fill="#20B08A"/>
</g>
<g filter="url(#filter8_d)">
<path d="M370.029 115.335C370.924 114.483 372.33 114.483 373.224 115.335C374.039 116.113 375.223 116.365 376.284 115.986C377.448 115.57 378.732 116.142 379.202 117.285C379.631 118.327 380.61 119.039 381.734 119.124C382.966 119.218 383.907 120.263 383.871 121.498C383.839 122.624 384.444 123.673 385.435 124.208C386.523 124.794 386.957 126.132 386.423 127.246C385.935 128.261 386.061 129.465 386.75 130.357C387.504 131.336 387.357 132.734 386.416 133.534C385.557 134.264 385.183 135.415 385.449 136.51C385.74 137.71 385.037 138.928 383.852 139.276C382.771 139.593 381.961 140.493 381.758 141.601C381.536 142.817 380.398 143.643 379.174 143.479C378.057 143.329 376.951 143.821 376.316 144.751C375.618 145.771 374.243 146.064 373.191 145.416C372.232 144.824 371.021 144.824 370.062 145.416C369.01 146.064 367.635 145.771 366.938 144.751C366.302 143.821 365.196 143.329 364.079 143.479C362.855 143.643 361.717 142.817 361.495 141.601C361.293 140.493 360.483 139.593 359.402 139.276C358.216 138.928 357.513 137.71 357.804 136.51C358.07 135.415 357.696 134.264 356.838 133.534C355.896 132.734 355.749 131.336 356.504 130.357C357.192 129.465 357.318 128.261 356.831 127.246C356.296 126.132 356.731 124.794 357.818 124.208C358.809 123.673 359.415 122.624 359.382 121.498C359.347 120.263 360.288 119.218 361.52 119.124C362.643 119.039 363.622 118.327 364.051 117.285C364.521 116.142 365.805 115.57 366.969 115.986C368.03 116.365 369.214 116.113 370.029 115.335Z" fill="#142433" stroke="#33C69F" stroke-width="0.667574"/>
<path d="M370.379 118.707C371.171 117.951 372.417 117.951 373.209 118.707C373.77 119.242 374.585 119.415 375.314 119.154C376.346 118.786 377.484 119.293 377.901 120.305C378.195 121.022 378.869 121.512 379.642 121.57C380.733 121.653 381.567 122.58 381.536 123.674C381.513 124.449 381.93 125.17 382.612 125.538C383.575 126.058 383.96 127.243 383.487 128.23C383.151 128.929 383.238 129.757 383.711 130.37C384.38 131.237 384.25 132.477 383.416 133.186C382.825 133.688 382.568 134.479 382.751 135.232C383.009 136.296 382.386 137.376 381.335 137.684C380.592 137.902 380.034 138.521 379.895 139.283C379.698 140.36 378.69 141.093 377.605 140.947C376.837 140.844 376.076 141.183 375.639 141.823C375.021 142.727 373.802 142.986 372.87 142.411C372.21 142.005 371.378 142.005 370.718 142.411C369.786 142.986 368.567 142.727 367.949 141.823C367.512 141.183 366.751 140.844 365.983 140.947C364.898 141.093 363.89 140.36 363.693 139.283C363.553 138.521 362.996 137.902 362.253 137.684C361.202 137.376 360.579 136.296 360.837 135.232C361.02 134.479 360.763 133.688 360.172 133.186C359.338 132.477 359.208 131.237 359.876 130.37C360.35 129.757 360.437 128.929 360.101 128.23C359.627 127.243 360.013 126.058 360.976 125.538C361.658 125.17 362.074 124.449 362.052 123.674C362.021 122.58 362.855 121.653 363.946 121.57C364.719 121.512 365.393 121.022 365.687 120.305C366.104 119.293 367.242 118.786 368.274 119.154C369.003 119.415 369.818 119.242 370.379 118.707Z" fill="#33C69F" fill-opacity="0.1"/>
<circle cx="371.627" cy="130.374" r="7.17642" stroke="white" stroke-opacity="0.1" stroke-width="0.333787"/>
<circle cx="371.626" cy="130.374" r="8.84535" stroke="white" stroke-opacity="0.2" stroke-width="0.333787"/>
<g clip-path="url(#clip2)">
<path d="M380.398 132.766L381.554 132.402L381.179 131.569C380.903 131.915 380.627 132.361 380.398 132.766ZM380.005 128.958L377.74 123.912L361.159 124.851L365.753 137.384L374.595 134.597C374.032 133.787 373.827 132.825 374.478 132.355C375.206 131.827 376.303 132.437 377.001 133.3C377.676 132.173 379.571 129.551 380.005 128.958Z" fill="#33C69F" fill-opacity="0.33"/>
<path d="M377.223 127.559C377.916 127.559 378.479 127.031 378.479 126.374C378.479 125.717 377.916 125.188 377.223 125.188C376.531 125.188 375.968 125.717 375.968 126.374C375.968 127.025 376.531 127.559 377.223 127.559ZM376.197 128.069H378.25V133.438H376.197V128.069Z" fill="#7DE6CA"/>
<path d="M375.182 129.636C375.199 129.642 375.211 129.636 375.211 129.619V128.258C375.211 128.24 375.199 128.222 375.182 128.211C375.182 128.211 374.912 128.035 374.09 127.988C374.049 127.964 373.328 127.958 373.134 127.988C370.142 128.228 370.03 130.393 370.03 130.487V131.015C370.03 131.08 370.03 133.292 373.134 133.485C373.439 133.509 374.032 133.485 374.09 133.485C374.806 133.485 375.299 133.268 375.299 133.268C375.317 133.262 375.328 133.245 375.328 133.227V131.954C375.328 131.936 375.317 131.93 375.305 131.942C375.305 131.942 375.082 132.118 374.108 132.218C373.832 132.247 373.697 132.236 373.598 132.218C372.213 131.983 372.148 130.974 372.148 130.974C372.148 130.957 372.143 130.927 372.143 130.915V130.528C372.143 130.511 372.143 130.481 372.148 130.47C372.148 130.47 372.242 129.384 373.598 129.267H374.108C374.701 129.343 375.182 129.636 375.182 129.636Z" fill="#7DE6CA"/>
<path d="M364.327 133.42C364.327 133.438 364.339 133.449 364.356 133.449H366.357C366.375 133.449 366.387 133.438 366.387 133.42V131.859C366.387 131.842 366.398 131.83 366.416 131.83C366.416 131.83 369.614 132.059 369.614 129.917C369.614 128.222 367.607 128.04 366.95 128.069C366.938 128.069 364.356 128.069 364.356 128.069C364.339 128.069 364.327 128.081 364.327 128.098V133.42ZM366.351 130.639V129.237H366.844C366.844 129.237 367.554 129.266 367.613 129.753C367.625 129.788 367.625 130.029 367.613 130.041C367.519 130.61 366.903 130.639 366.903 130.639H366.351Z" fill="#7DE6CA"/>
<path d="M377.283 136.028C377.447 136.028 377.576 136.028 377.787 135.934C378.515 135.553 380.973 129.55 383.567 127.702C383.584 127.69 383.602 127.673 383.614 127.655C383.631 127.632 383.631 127.608 383.631 127.608C383.631 127.608 383.631 127.485 383.25 127.485C380.944 127.42 378.544 132.261 377.283 134.174C377.265 134.197 377.183 134.174 377.183 134.174C377.183 134.174 376.338 133.176 375.605 132.795C375.587 132.789 375.505 132.76 375.417 132.766C375.358 132.766 375.018 132.836 374.86 133C374.672 133.2 374.678 133.311 374.678 133.552C374.678 133.569 374.689 133.652 374.713 133.693C374.895 134.01 375.71 135.136 376.385 135.758C376.485 135.834 376.643 136.028 377.283 136.028Z" fill="#33C69F"/>
</g>
</g>
<g clip-path="url(#clip3)" filter="url(#filter9_d)">
<path d="M369.529 300.086C370.424 299.234 371.83 299.234 372.724 300.086C373.539 300.864 374.723 301.116 375.784 300.737C376.948 300.321 378.232 300.893 378.702 302.036C379.131 303.078 380.11 303.79 381.234 303.875C382.466 303.969 383.407 305.014 383.371 306.249C383.339 307.375 383.944 308.424 384.935 308.959C386.023 309.545 386.457 310.883 385.923 311.997C385.435 313.012 385.561 314.216 386.25 315.108C387.004 316.086 386.857 317.485 385.916 318.285C385.057 319.015 384.683 320.166 384.949 321.261C385.24 322.461 384.537 323.679 383.352 324.027C382.271 324.344 381.461 325.244 381.258 326.352C381.036 327.568 379.898 328.394 378.674 328.23C377.557 328.08 376.451 328.572 375.816 329.502C375.118 330.522 373.743 330.815 372.691 330.166C371.732 329.575 370.521 329.575 369.562 330.166C368.51 330.815 367.135 330.522 366.438 329.502C365.802 328.572 364.696 328.08 363.579 328.23C362.355 328.394 361.217 327.568 360.995 326.352C360.793 325.244 359.983 324.344 358.902 324.027C357.716 323.679 357.013 322.461 357.304 321.261C357.57 320.166 357.196 319.015 356.338 318.285C355.396 317.485 355.249 316.086 356.004 315.108C356.692 314.216 356.818 313.012 356.331 311.997C355.796 310.883 356.231 309.545 357.318 308.959C358.309 308.424 358.915 307.375 358.882 306.249C358.847 305.014 359.788 303.969 361.02 303.875C362.143 303.79 363.122 303.078 363.551 302.036C364.021 300.893 365.305 300.321 366.469 300.737C367.53 301.116 368.714 300.864 369.529 300.086Z" fill="#142433" stroke="#33C69F" stroke-width="0.667574"/>
<path d="M369.879 303.458C370.671 302.702 371.917 302.702 372.709 303.458C373.27 303.992 374.085 304.166 374.814 303.905C375.846 303.537 376.984 304.044 377.401 305.056C377.695 305.773 378.369 306.263 379.142 306.321C380.233 306.404 381.067 307.331 381.036 308.425C381.013 309.2 381.43 309.921 382.112 310.289C383.075 310.809 383.46 311.994 382.987 312.981C382.651 313.68 382.738 314.508 383.211 315.121C383.88 315.988 383.75 317.228 382.916 317.937C382.325 318.438 382.068 319.23 382.251 319.983C382.509 321.047 381.886 322.127 380.835 322.435C380.092 322.653 379.534 323.272 379.395 324.034C379.198 325.111 378.19 325.844 377.105 325.698C376.337 325.595 375.576 325.934 375.139 326.574C374.521 327.477 373.302 327.737 372.37 327.162C371.71 326.755 370.878 326.755 370.218 327.162C369.286 327.737 368.067 327.477 367.449 326.574C367.012 325.934 366.251 325.595 365.483 325.698C364.398 325.844 363.39 325.111 363.193 324.034C363.053 323.272 362.496 322.653 361.753 322.435C360.702 322.127 360.079 321.047 360.337 319.983C360.52 319.23 360.263 318.438 359.672 317.937C358.838 317.228 358.708 315.988 359.376 315.121C359.85 314.508 359.937 313.68 359.601 312.981C359.127 311.994 359.513 310.809 360.476 310.289C361.158 309.921 361.574 309.2 361.552 308.425C361.521 307.331 362.355 306.404 363.446 306.321C364.219 306.263 364.893 305.773 365.187 305.056C365.604 304.044 366.742 303.537 367.774 303.905C368.503 304.166 369.318 303.992 369.879 303.458Z" fill="#33C69F" fill-opacity="0.1"/>
<circle cx="371.127" cy="315.125" r="7.17642" stroke="white" stroke-opacity="0.1" stroke-width="0.333787"/>
<circle cx="371.126" cy="315.125" r="8.84535" stroke="white" stroke-opacity="0.2" stroke-width="0.333787"/>
<g filter="url(#filter10_d)">
<path d="M370.223 315.137V316.261H366.82V319.609H365.509V311.734H371.016V312.846H366.82V315.137H370.223ZM370.972 311.734H374.331C375.146 311.734 375.793 311.932 376.27 312.328C376.755 312.725 376.997 313.279 376.997 313.992C376.997 314.528 376.868 314.961 376.611 315.292C376.354 315.622 375.995 315.842 375.532 315.952V315.974C375.914 316.048 376.2 316.228 376.391 316.514C376.589 316.801 376.718 317.113 376.777 317.45C376.843 317.781 376.89 318.188 376.92 318.673C376.942 318.967 376.964 319.18 376.986 319.312C377.008 319.437 377.048 319.51 377.107 319.532V319.609H375.73C375.679 319.565 375.646 319.481 375.631 319.356C375.616 319.231 375.605 319.048 375.598 318.805C375.591 318.372 375.558 318.005 375.499 317.704C375.447 317.403 375.319 317.138 375.113 316.911C374.915 316.683 374.614 316.569 374.21 316.569H372.282V319.609H370.972V311.734ZM372.282 315.446H374.056C374.555 315.446 374.952 315.358 375.246 315.181C375.547 315.005 375.697 314.66 375.697 314.146C375.697 313.632 375.547 313.287 375.246 313.111C374.944 312.934 374.548 312.846 374.056 312.846H372.282V315.446Z" fill="#33C69F"/>
</g>
</g>
<g clip-path="url(#clip4)" filter="url(#filter11_d)">
<path d="M182.776 115.335C183.67 114.483 185.076 114.483 185.97 115.335C186.785 116.113 187.969 116.365 189.03 115.986C190.194 115.57 191.479 116.142 191.948 117.285C192.377 118.327 193.356 119.039 194.48 119.124C195.712 119.218 196.653 120.263 196.617 121.498C196.585 122.624 197.19 123.673 198.182 124.208C199.269 124.794 199.703 126.132 199.169 127.246C198.681 128.261 198.807 129.465 199.496 130.357C200.25 131.336 200.103 132.734 199.162 133.534C198.303 134.264 197.929 135.415 198.195 136.51C198.486 137.71 197.783 138.928 196.598 139.276C195.517 139.593 194.707 140.493 194.504 141.601C194.282 142.817 193.144 143.643 191.92 143.479C190.803 143.329 189.697 143.821 189.062 144.751C188.364 145.771 186.989 146.064 185.937 145.416C184.978 144.824 183.767 144.824 182.808 145.416C181.757 146.064 180.381 145.771 179.684 144.751C179.048 143.821 177.942 143.329 176.826 143.479C175.601 143.643 174.463 142.817 174.241 141.601C174.039 140.493 173.229 139.593 172.148 139.276C170.962 138.928 170.259 137.71 170.551 136.51C170.816 135.415 170.442 134.264 169.584 133.534C168.642 132.734 168.495 131.336 169.25 130.357C169.938 129.465 170.065 128.261 169.577 127.246C169.042 126.132 169.477 124.794 170.564 124.208C171.556 123.673 172.161 122.624 172.128 121.498C172.093 120.263 173.034 119.218 174.266 119.124C175.389 119.039 176.369 118.327 176.797 117.285C177.267 116.142 178.552 115.57 179.715 115.986C180.776 116.365 181.96 116.113 182.776 115.335Z" fill="#142433" stroke="#33C69F" stroke-width="0.667574"/>
<path d="M183.125 118.707C183.917 117.951 185.163 117.951 185.955 118.707C186.516 119.242 187.331 119.415 188.06 119.154C189.092 118.786 190.23 119.293 190.647 120.305C190.941 121.022 191.615 121.512 192.388 121.57C193.479 121.653 194.313 122.58 194.282 123.674C194.26 124.449 194.676 125.17 195.358 125.538C196.321 126.058 196.707 127.243 196.233 128.23C195.897 128.929 195.984 129.757 196.458 130.37C197.126 131.237 196.996 132.477 196.162 133.186C195.571 133.688 195.314 134.479 195.497 135.232C195.755 136.296 195.132 137.376 194.081 137.684C193.338 137.902 192.781 138.521 192.641 139.283C192.445 140.36 191.436 141.093 190.351 140.947C189.583 140.844 188.822 141.183 188.385 141.823C187.767 142.727 186.548 142.986 185.616 142.411C184.956 142.005 184.124 142.005 183.464 142.411C182.532 142.986 181.313 142.727 180.695 141.823C180.258 141.183 179.497 140.844 178.729 140.947C177.644 141.093 176.636 140.36 176.439 139.283C176.3 138.521 175.742 137.902 174.999 137.684C173.948 137.376 173.325 136.296 173.583 135.232C173.766 134.479 173.509 133.688 172.918 133.186C172.084 132.477 171.954 131.237 172.623 130.37C173.096 129.757 173.183 128.929 172.847 128.23C172.374 127.243 172.759 126.058 173.722 125.538C174.404 125.17 174.821 124.449 174.798 123.674C174.767 122.58 175.601 121.653 176.692 121.57C177.465 121.512 178.139 121.022 178.433 120.305C178.85 119.293 179.988 118.786 181.02 119.154C181.749 119.415 182.564 119.242 183.125 118.707Z" fill="#33C69F" fill-opacity="0.1"/>
<circle cx="184.373" cy="130.374" r="7.17642" stroke="white" stroke-opacity="0.1" stroke-width="0.333787"/>
<circle cx="184.373" cy="130.374" r="8.84535" stroke="white" stroke-opacity="0.2" stroke-width="0.333787"/>
<g filter="url(#filter12_d)">
<path d="M180.79 129.692C180.701 129.208 180.492 128.796 180.162 128.459C179.831 128.114 179.336 127.941 178.675 127.941C177.882 127.941 177.287 128.224 176.89 128.789C176.501 129.355 176.306 130.063 176.306 130.915C176.306 131.774 176.501 132.487 176.89 133.052C177.287 133.617 177.882 133.9 178.675 133.9C179.35 133.9 179.857 133.717 180.195 133.349C180.54 132.982 180.738 132.527 180.79 131.983H182.1C182.042 132.578 181.869 133.107 181.583 133.57C181.296 134.025 180.907 134.381 180.415 134.638C179.93 134.895 179.361 135.024 178.708 135.024C177.966 135.024 177.312 134.847 176.747 134.495C176.189 134.142 175.759 133.658 175.458 133.041C175.157 132.417 175.007 131.708 175.007 130.915C175.007 130.129 175.157 129.428 175.458 128.811C175.767 128.187 176.2 127.699 176.758 127.346C177.316 126.994 177.966 126.817 178.708 126.817C179.354 126.817 179.919 126.942 180.404 127.192C180.896 127.442 181.285 127.787 181.572 128.227C181.858 128.661 182.034 129.149 182.1 129.692H180.79ZM184.403 126.983V134.858H183.093V126.983H184.403ZM188.777 130.166C189.482 130.342 190.029 130.515 190.418 130.684C190.807 130.845 191.123 131.088 191.366 131.411C191.615 131.726 191.74 132.163 191.74 132.721C191.74 133.155 191.63 133.544 191.41 133.889C191.197 134.234 190.87 134.51 190.429 134.715C189.989 134.921 189.449 135.024 188.81 135.024C188.164 135.024 187.58 134.913 187.059 134.693C186.545 134.473 186.133 134.153 185.825 133.735C185.524 133.316 185.362 132.817 185.34 132.237H186.651C186.688 132.758 186.886 133.166 187.246 133.459C187.606 133.753 188.127 133.9 188.81 133.9C189.361 133.9 189.768 133.797 190.033 133.592C190.297 133.379 190.429 133.107 190.429 132.777C190.429 132.475 190.352 132.241 190.198 132.072C190.051 131.903 189.834 131.767 189.548 131.664C189.269 131.561 188.821 131.433 188.204 131.279C187.698 131.154 187.261 131.011 186.893 130.849C186.534 130.68 186.233 130.449 185.99 130.155C185.755 129.854 185.638 129.468 185.638 128.998C185.638 128.308 185.887 127.772 186.387 127.39C186.886 127.008 187.569 126.817 188.436 126.817C189.317 126.817 190.04 127.041 190.606 127.489C191.171 127.93 191.479 128.547 191.531 129.34H190.22C190.095 128.407 189.5 127.941 188.436 127.941C187.966 127.941 187.598 128.025 187.334 128.194C187.07 128.356 186.938 128.584 186.938 128.877C186.938 129.149 187.007 129.362 187.147 129.516C187.294 129.67 187.481 129.788 187.709 129.869C187.936 129.942 188.292 130.041 188.777 130.166Z" fill="#33C69F"/>
</g>
</g>
<g filter="url(#filter13_d)">
<path d="M182.776 300.086C183.67 299.234 185.076 299.234 185.97 300.086C186.785 300.864 187.969 301.116 189.03 300.737C190.194 300.321 191.479 300.893 191.948 302.036C192.377 303.078 193.356 303.79 194.48 303.875C195.712 303.969 196.653 305.014 196.617 306.249C196.585 307.375 197.19 308.424 198.182 308.959C199.269 309.545 199.703 310.883 199.169 311.997C198.681 313.012 198.807 314.216 199.496 315.108C200.25 316.086 200.103 317.485 199.162 318.285C198.303 319.015 197.929 320.166 198.195 321.261C198.486 322.461 197.783 323.679 196.598 324.027C195.517 324.344 194.707 325.244 194.504 326.352C194.282 327.568 193.144 328.394 191.92 328.23C190.803 328.08 189.697 328.572 189.062 329.502C188.364 330.522 186.989 330.815 185.937 330.166C184.978 329.575 183.767 329.575 182.808 330.166C181.757 330.815 180.381 330.522 179.684 329.502C179.048 328.572 177.942 328.08 176.826 328.23C175.601 328.394 174.463 327.568 174.241 326.352C174.039 325.244 173.229 324.344 172.148 324.027C170.962 323.679 170.259 322.461 170.551 321.261C170.816 320.166 170.442 319.015 169.584 318.285C168.642 317.485 168.495 316.086 169.25 315.108C169.938 314.216 170.065 313.012 169.577 311.997C169.042 310.883 169.477 309.545 170.564 308.959C171.556 308.424 172.161 307.375 172.128 306.249C172.093 305.014 173.034 303.969 174.266 303.875C175.389 303.79 176.369 303.078 176.797 302.036C177.267 300.893 178.552 300.321 179.715 300.737C180.776 301.116 181.96 300.864 182.776 300.086Z" fill="#142433" stroke="#33C69F" stroke-width="0.667574"/>
<path d="M183.125 303.458C183.917 302.702 185.163 302.702 185.955 303.458C186.516 303.992 187.331 304.166 188.06 303.905C189.092 303.537 190.23 304.044 190.647 305.056C190.941 305.773 191.615 306.263 192.388 306.321C193.479 306.404 194.313 307.331 194.282 308.425C194.26 309.2 194.676 309.921 195.358 310.289C196.321 310.809 196.707 311.994 196.233 312.981C195.897 313.68 195.984 314.508 196.458 315.121C197.126 315.988 196.996 317.228 196.162 317.937C195.571 318.438 195.314 319.23 195.497 319.983C195.755 321.047 195.132 322.127 194.081 322.435C193.338 322.653 192.781 323.272 192.641 324.034C192.445 325.111 191.436 325.844 190.351 325.698C189.583 325.595 188.822 325.934 188.385 326.574C187.767 327.477 186.548 327.737 185.616 327.162C184.956 326.755 184.124 326.755 183.464 327.162C182.532 327.737 181.313 327.477 180.695 326.574C180.258 325.934 179.497 325.595 178.729 325.698C177.644 325.844 176.636 325.111 176.439 324.034C176.3 323.272 175.742 322.653 174.999 322.435C173.948 322.127 173.325 321.047 173.583 319.983C173.766 319.23 173.509 318.438 172.918 317.937C172.084 317.228 171.954 315.988 172.623 315.121C173.096 314.508 173.183 313.68 172.847 312.981C172.374 311.994 172.759 310.809 173.722 310.289C174.404 309.921 174.821 309.2 174.798 308.425C174.767 307.331 175.601 306.404 176.692 306.321C177.465 306.263 178.139 305.773 178.433 305.056C178.85 304.044 179.988 303.537 181.02 303.905C181.749 304.166 182.564 303.992 183.125 303.458Z" fill="#33C69F" fill-opacity="0.1"/>
<circle cx="184.373" cy="315.125" r="7.17642" stroke="white" stroke-opacity="0.1" stroke-width="0.333787"/>
<circle cx="184.373" cy="315.125" r="8.84535" stroke="white" stroke-opacity="0.2" stroke-width="0.333787"/>
<path d="M175.035 317.859H173.858V313.33C173.858 313.33 173.858 312.467 174.721 312.192C175.505 311.938 176.015 312.447 176.015 312.447L179.878 316.624C180.074 316.741 180.152 316.624 180.152 316.506V312.192H181.349V316.683C181.349 317.055 181.035 317.545 180.564 317.722C180.094 317.898 179.603 317.898 179.015 317.389L175.388 313.467C175.29 313.369 175.035 313.349 175.035 313.545V317.859Z" fill="#33C69F"/>
<path d="M182.094 312.192H183.29V316.251C183.29 316.683 183.662 316.683 183.996 316.683H189.251C189.466 316.683 189.721 316.428 189.721 316.153C189.721 315.879 189.466 315.604 189.231 315.604H185.819C185.231 315.624 184.015 315.075 184.015 313.938C184.015 312.545 185.172 312.212 185.702 312.173H195.388V313.369H192.976V317.859H191.8V313.369H185.878C185.309 313.33 184.917 314.29 185.839 314.428H189.486C190.035 314.428 190.937 314.898 190.956 316.075C190.956 317.271 190.251 317.839 189.486 317.839H184.055C183.172 317.839 182.839 317.624 182.525 317.349C182.231 317.055 182.192 316.898 182.094 316.31V312.192C182.113 312.192 182.094 312.192 182.094 312.192Z" fill="#33C69F"/>
</g>
</g>
<defs>
<filter id="filter0_d" x="225.979" y="190.334" width="104.042" height="104.042" filterUnits="userSpaceOnUse" color-interpolation-filters="sRGB">
<feFlood flood-opacity="0" result="BackgroundImageFix"/>
<feColorMatrix in="SourceAlpha" type="matrix" values="0 0 0 0 0 0 0 0 0 0 0 0 0 0 0 0 0 0 127 0"/>
<feOffset dy="19.267"/>
<feGaussianBlur stdDeviation="14.4503"/>
<feColorMatrix type="matrix" values="0 0 0 0 0 0 0 0 0 0 0 0 0 0 0 0 0 0 0.25 0"/>
<feBlend mode="normal" in2="BackgroundImageFix" result="effect1_dropShadow"/>
<feBlend mode="normal" in="SourceGraphic" in2="effect1_dropShadow" result="shape"/>
</filter>
<filter id="filter1_d" x="258.974" y="120.86" width="38.0517" height="38.0517" filterUnits="userSpaceOnUse" color-interpolation-filters="sRGB">
<feFlood flood-opacity="0" result="BackgroundImageFix"/>
<feColorMatrix in="SourceAlpha" type="matrix" values="0 0 0 0 0 0 0 0 0 0 0 0 0 0 0 0 0 0 127 0"/>
<feOffset dy="2.00272"/>
<feGaussianBlur stdDeviation="1.00136"/>
<feColorMatrix type="matrix" values="0 0 0 0 0 0 0 0 0 0 0 0 0 0 0 0 0 0 0.25 0"/>
<feBlend mode="normal" in2="BackgroundImageFix" result="effect1_dropShadow"/>
<feBlend mode="normal" in="SourceGraphic" in2="effect1_dropShadow" result="shape"/>
</filter>
<filter id="filter2_d" x="247.383" y="120.112" width="61.0122" height="61.0122" filterUnits="userSpaceOnUse" color-interpolation-filters="sRGB">
<feFlood flood-opacity="0" result="BackgroundImageFix"/>
<feColorMatrix in="SourceAlpha" type="matrix" values="0 0 0 0 0 0 0 0 0 0 0 0 0 0 0 0 0 0 127 0"/>
<feOffset dy="12.8447"/>
<feGaussianBlur stdDeviation="9.63351"/>
<feColorMatrix type="matrix" values="0 0 0 0 0 0 0 0 0 0 0 0 0 0 0 0 0 0 0.25 0"/>
<feBlend mode="normal" in2="BackgroundImageFix" result="effect1_dropShadow"/>
<feBlend mode="normal" in="SourceGraphic" in2="effect1_dropShadow" result="shape"/>
</filter>
<filter id="filter3_d" x="335.077" y="163.419" width="38.0517" height="38.0517" filterUnits="userSpaceOnUse" color-interpolation-filters="sRGB">
<feFlood flood-opacity="0" result="BackgroundImageFix"/>
<feColorMatrix in="SourceAlpha" type="matrix" values="0 0 0 0 0 0 0 0 0 0 0 0 0 0 0 0 0 0 127 0"/>
<feOffset dy="2.00272"/>
<feGaussianBlur stdDeviation="1.00136"/>
<feColorMatrix type="matrix" values="0 0 0 0 0 0 0 0 0 0 0 0 0 0 0 0 0 0 0.25 0"/>
<feBlend mode="normal" in2="BackgroundImageFix" result="effect1_dropShadow"/>
<feBlend mode="normal" in="SourceGraphic" in2="effect1_dropShadow" result="shape"/>
</filter>
<filter id="filter4_d" x="182.87" y="163.419" width="38.0517" height="38.0517" filterUnits="userSpaceOnUse" color-interpolation-filters="sRGB">
<feFlood flood-opacity="0" result="BackgroundImageFix"/>
<feColorMatrix in="SourceAlpha" type="matrix" values="0 0 0 0 0 0 0 0 0 0 0 0 0 0 0 0 0 0 127 0"/>
<feOffset dy="2.00272"/>
<feGaussianBlur stdDeviation="1.00136"/>
<feColorMatrix type="matrix" values="0 0 0 0 0 0 0 0 0 0 0 0 0 0 0 0 0 0 0.25 0"/>
<feBlend mode="normal" in2="BackgroundImageFix" result="effect1_dropShadow"/>
<feBlend mode="normal" in="SourceGraphic" in2="effect1_dropShadow" result="shape"/>
</filter>
<filter id="filter5_d" x="335.077" y="249.035" width="38.0517" height="38.0517" filterUnits="userSpaceOnUse" color-interpolation-filters="sRGB">
<feFlood flood-opacity="0" result="BackgroundImageFix"/>
<feColorMatrix in="SourceAlpha" type="matrix" values="0 0 0 0 0 0 0 0 0 0 0 0 0 0 0 0 0 0 127 0"/>
<feOffset dy="2.00272"/>
<feGaussianBlur stdDeviation="1.00136"/>
<feColorMatrix type="matrix" values="0 0 0 0 0 0 0 0 0 0 0 0 0 0 0 0 0 0 0.25 0"/>
<feBlend mode="normal" in2="BackgroundImageFix" result="effect1_dropShadow"/>
<feBlend mode="normal" in="SourceGraphic" in2="effect1_dropShadow" result="shape"/>
</filter>
<filter id="filter6_d" x="182.87" y="249.035" width="38.0517" height="38.0517" filterUnits="userSpaceOnUse" color-interpolation-filters="sRGB">
<feFlood flood-opacity="0" result="BackgroundImageFix"/>
<feColorMatrix in="SourceAlpha" type="matrix" values="0 0 0 0 0 0 0 0 0 0 0 0 0 0 0 0 0 0 127 0"/>
<feOffset dy="2.00272"/>
<feGaussianBlur stdDeviation="1.00136"/>
<feColorMatrix type="matrix" values="0 0 0 0 0 0 0 0 0 0 0 0 0 0 0 0 0 0 0.25 0"/>
<feBlend mode="normal" in2="BackgroundImageFix" result="effect1_dropShadow"/>
<feBlend mode="normal" in="SourceGraphic" in2="effect1_dropShadow" result="shape"/>
</filter>
<filter id="filter7_d" x="258.974" y="292.094" width="38.0517" height="38.0517" filterUnits="userSpaceOnUse" color-interpolation-filters="sRGB">
<feFlood flood-opacity="0" result="BackgroundImageFix"/>
<feColorMatrix in="SourceAlpha" type="matrix" values="0 0 0 0 0 0 0 0 0 0 0 0 0 0 0 0 0 0 127 0"/>
<feOffset dy="2.00272"/>
<feGaussianBlur stdDeviation="1.00136"/>
<feColorMatrix type="matrix" values="0 0 0 0 0 0 0 0 0 0 0 0 0 0 0 0 0 0 0.25 0"/>
<feBlend mode="normal" in2="BackgroundImageFix" result="effect1_dropShadow"/>
<feBlend mode="normal" in="SourceGraphic" in2="effect1_dropShadow" result="shape"/>
</filter>
<filter id="filter8_d" x="352.601" y="113.351" width="38.0517" height="38.0517" filterUnits="userSpaceOnUse" color-interpolation-filters="sRGB">
<feFlood flood-opacity="0" result="BackgroundImageFix"/>
<feColorMatrix in="SourceAlpha" type="matrix" values="0 0 0 0 0 0 0 0 0 0 0 0 0 0 0 0 0 0 127 0"/>
<feOffset dy="2.00272"/>
<feGaussianBlur stdDeviation="1.00136"/>
<feColorMatrix type="matrix" values="0 0 0 0 0 0 0 0 0 0 0 0 0 0 0 0 0 0 0.25 0"/>
<feBlend mode="normal" in2="BackgroundImageFix" result="effect1_dropShadow"/>
<feBlend mode="normal" in="SourceGraphic" in2="effect1_dropShadow" result="shape"/>
</filter>
<filter id="filter9_d" x="352.101" y="298.102" width="38.0517" height="38.0517" filterUnits="userSpaceOnUse" color-interpolation-filters="sRGB">
<feFlood flood-opacity="0" result="BackgroundImageFix"/>
<feColorMatrix in="SourceAlpha" type="matrix" values="0 0 0 0 0 0 0 0 0 0 0 0 0 0 0 0 0 0 127 0"/>
<feOffset dy="2.00272"/>
<feGaussianBlur stdDeviation="1.00136"/>
<feColorMatrix type="matrix" values="0 0 0 0 0 0 0 0 0 0 0 0 0 0 0 0 0 0 0.25 0"/>
<feBlend mode="normal" in2="BackgroundImageFix" result="effect1_dropShadow"/>
<feBlend mode="normal" in="SourceGraphic" in2="effect1_dropShadow" result="shape"/>
</filter>
<filter id="filter10_d" x="340.511" y="297.354" width="61.0122" height="61.0122" filterUnits="userSpaceOnUse" color-interpolation-filters="sRGB">
<feFlood flood-opacity="0" result="BackgroundImageFix"/>
<feColorMatrix in="SourceAlpha" type="matrix" values="0 0 0 0 0 0 0 0 0 0 0 0 0 0 0 0 0 0 127 0"/>
<feOffset dy="12.8447"/>
<feGaussianBlur stdDeviation="9.63351"/>
<feColorMatrix type="matrix" values="0 0 0 0 0 0 0 0 0 0 0 0 0 0 0 0 0 0 0.25 0"/>
<feBlend mode="normal" in2="BackgroundImageFix" result="effect1_dropShadow"/>
<feBlend mode="normal" in="SourceGraphic" in2="effect1_dropShadow" result="shape"/>
</filter>
<filter id="filter11_d" x="165.347" y="113.351" width="38.0517" height="38.0517" filterUnits="userSpaceOnUse" color-interpolation-filters="sRGB">
<feFlood flood-opacity="0" result="BackgroundImageFix"/>
<feColorMatrix in="SourceAlpha" type="matrix" values="0 0 0 0 0 0 0 0 0 0 0 0 0 0 0 0 0 0 127 0"/>
<feOffset dy="2.00272"/>
<feGaussianBlur stdDeviation="1.00136"/>
<feColorMatrix type="matrix" values="0 0 0 0 0 0 0 0 0 0 0 0 0 0 0 0 0 0 0.25 0"/>
<feBlend mode="normal" in2="BackgroundImageFix" result="effect1_dropShadow"/>
<feBlend mode="normal" in="SourceGraphic" in2="effect1_dropShadow" result="shape"/>
</filter>
<filter id="filter12_d" x="153.757" y="112.603" width="61.0122" height="61.0122" filterUnits="userSpaceOnUse" color-interpolation-filters="sRGB">
<feFlood flood-opacity="0" result="BackgroundImageFix"/>
<feColorMatrix in="SourceAlpha" type="matrix" values="0 0 0 0 0 0 0 0 0 0 0 0 0 0 0 0 0 0 127 0"/>
<feOffset dy="12.8447"/>
<feGaussianBlur stdDeviation="9.63351"/>
<feColorMatrix type="matrix" values="0 0 0 0 0 0 0 0 0 0 0 0 0 0 0 0 0 0 0.25 0"/>
<feBlend mode="normal" in2="BackgroundImageFix" result="effect1_dropShadow"/>
<feBlend mode="normal" in="SourceGraphic" in2="effect1_dropShadow" result="shape"/>
</filter>
<filter id="filter13_d" x="165.347" y="298.102" width="38.0517" height="38.0517" filterUnits="userSpaceOnUse" color-interpolation-filters="sRGB">
<feFlood flood-opacity="0" result="BackgroundImageFix"/>
<feColorMatrix in="SourceAlpha" type="matrix" values="0 0 0 0 0 0 0 0 0 0 0 0 0 0 0 0 0 0 127 0"/>
<feOffset dy="2.00272"/>
<feGaussianBlur stdDeviation="1.00136"/>
<feColorMatrix type="matrix" values="0 0 0 0 0 0 0 0 0 0 0 0 0 0 0 0 0 0 0.25 0"/>
<feBlend mode="normal" in2="BackgroundImageFix" result="effect1_dropShadow"/>
<feBlend mode="normal" in="SourceGraphic" in2="effect1_dropShadow" result="shape"/>
</filter>
<radialGradient id="paint0_radial" cx="0" cy="0" r="1" gradientUnits="userSpaceOnUse" gradientTransform="translate(274.146 -145.463) rotate(89.7013) scale(461.933 733.183)">
<stop stop-color="#33C69F" stop-opacity="0.56"/>
<stop offset="1" stop-color="#33C69F" stop-opacity="0"/>
</radialGradient>
<radialGradient id="paint1_radial" cx="0" cy="0" r="1" gradientUnits="userSpaceOnUse" gradientTransform="translate(278 -164.845) rotate(90) scale(388.345 616.384)">
<stop stop-color="#33C69F" stop-opacity="0.56"/>
<stop offset="1" stop-color="#33C69F" stop-opacity="0"/>
</radialGradient>
<radialGradient id="paint2_radial" cx="0" cy="0" r="1" gradientUnits="userSpaceOnUse" gradientTransform="translate(278 -279.374) rotate(90) scale(502.874 798.164)">
<stop stop-color="#33C69F" stop-opacity="0.56"/>
<stop offset="1" stop-color="#33C69F" stop-opacity="0"/>
</radialGradient>
<clipPath id="clip0">
<rect width="736" height="736" fill="white" transform="translate(-90 -144.5)"/>
</clipPath>
<clipPath id="clip1">
<rect width="34.0463" height="34.0463" fill="white" transform="translate(260.977 120.86)"/>
</clipPath>
<clipPath id="clip2">
<rect width="22.5306" height="13.5536" fill="white" transform="translate(361.112 123.865)"/>
</clipPath>
<clipPath id="clip3">
<rect width="34.0463" height="34.0463" fill="white" transform="translate(354.104 298.102)"/>
</clipPath>
<clipPath id="clip4">
<rect width="34.0463" height="34.0463" fill="white" transform="translate(167.35 113.351)"/>
</clipPath>
</defs>
</svg>
