<svg width="68" height="397" viewBox="0 0 68 397" fill="none" xmlns="http://www.w3.org/2000/svg">
<path d="M0 4C0 1.79086 1.79086 0 4 0H104C106.209 0 108 1.79086 108 4V60C108 62.2091 106.209 64 104 64H4C1.79086 64 0 62.2091 0 60V4Z" fill="#33C69F" fill-opacity="0.17"/>
<path d="M0 71C0 68.7909 1.79086 67 4 67H104C106.209 67 108 68.7909 108 71V127C108 129.209 106.209 131 104 131H4C1.79086 131 0 129.209 0 127V71Z" fill="#33C69F" fill-opacity="0.17"/>
<path d="M0 138C0 135.791 1.79086 134 4 134H104C106.209 134 108 135.791 108 138V194C108 196.209 106.209 198 104 198H4C1.79086 198 0 196.209 0 194V138Z" fill="#33C69F" fill-opacity="0.17"/>
<path d="M0 205C0 202.791 1.79086 201 4 201H104C106.209 201 108 202.791 108 205V261C108 263.209 106.209 265 104 265H4C1.79086 265 0 263.209 0 261V205Z" fill="#33C69F" fill-opacity="0.12"/>
<path d="M0 272C0 269.791 1.79086 268 4 268H104C106.209 268 108 269.791 108 272V328C108 330.209 106.209 332 104 332H4C1.79086 332 0 330.209 0 328V272Z" fill="#33C69F" fill-opacity="0.12"/>
<rect x="-13" y="111" width="587" height="286" fill="url(#paint0_linear)"/>
<defs>
<linearGradient id="paint0_linear" x1="389.759" y1="337.707" x2="389.759" y2="111" gradientUnits="userSpaceOnUse">
<stop stop-color="#132333"/>
<stop offset="1" stop-color="#132333" stop-opacity="0"/>
</linearGradient>
</defs>
</svg>
